<svg width="35" height="35" viewBox="0 0 35 35" fill="none" xmlns="http://www.w3.org/2000/svg">
<rect width="35" height="35" rx="17.5" fill="#DCF041"/>
<path d="M10.419 25H24.581C24.6921 25 24.7987 24.9557 24.8773 24.8769C24.9559 24.7981 25 24.6911 25 24.5797C25 24.4682 24.9559 24.3612 24.8773 24.2824C24.7987 24.2036 24.6921 24.1593 24.581 24.1593H10.419C10.3079 24.1593 10.2013 24.2036 10.1227 24.2824C10.0441 24.3612 10 24.4682 10 24.5797C10 24.6911 10.0441 24.7981 10.1227 24.8769C10.2013 24.9557 10.3079 25 10.419 25ZM15.5827 21.8407C15.9365 21.7408 16.2593 21.5528 16.5212 21.2942L24.5156 13.2739C24.7894 12.9982 24.9431 12.6249 24.9431 12.2357C24.9431 11.8465 24.7894 11.4731 24.5156 11.1974L23.7279 10.4155C23.449 10.1488 23.0784 10 22.693 10C22.3076 10 21.9371 10.1488 21.6581 10.4155L13.6637 18.4274C13.4059 18.6888 13.221 19.0135 13.1274 19.369L12.5073 21.6893C12.4781 21.7953 12.4775 21.9072 12.5055 22.0135C12.5334 22.1199 12.589 22.2169 12.6665 22.2946C12.7852 22.4114 12.9443 22.4776 13.1106 22.4796L15.5827 21.8407ZM15.9263 20.6973C15.7717 20.855 15.5778 20.9683 15.3648 21.0252L14.552 21.2438L13.714 20.4031L13.9318 19.5876C13.9897 19.3743 14.1024 19.1801 14.2587 19.0243L14.5771 18.7133L16.2447 20.3862L15.9263 20.6973ZM16.8397 19.7893L15.1721 18.1164L20.8117 12.4584L22.4793 14.1314L16.8397 19.7893ZM23.9207 12.6854L23.0743 13.5345L21.4067 11.8615L22.2531 11.004C22.3709 10.886 22.5307 10.8196 22.6972 10.8196C22.8638 10.8196 23.0235 10.886 23.1413 11.004L23.9207 11.7943C24.0376 11.9129 24.1031 12.073 24.1031 12.2399C24.1031 12.4067 24.0376 12.5668 23.9207 12.6854Z" fill="black"/>
</svg>
