<svg width="36" height="36" viewBox="0 0 36 36" fill="none" xmlns="http://www.w3.org/2000/svg">
<rect width="36" height="35.77" rx="17.885" fill="#DCF041"/>
<path d="M13.616 25.77C13.1713 25.77 12.791 25.6117 12.475 25.295C12.159 24.9783 12.0007 24.5987 12 24.156V11.77H11.5C11.358 11.77 11.2393 11.722 11.144 11.626C11.0487 11.53 11.0007 11.411 11 11.269C10.9993 11.127 11.0473 11.0083 11.144 10.913C11.2407 10.8177 11.3593 10.77 11.5 10.77H15C15 10.5633 15.0767 10.3833 15.23 10.23C15.3833 10.0767 15.5633 10 15.77 10H20.23C20.4367 10 20.6167 10.0767 20.77 10.23C20.9233 10.3833 21 10.5633 21 10.77H24.5C24.642 10.77 24.7607 10.818 24.856 10.914C24.9513 11.01 24.9993 11.129 25 11.271C25.0007 11.413 24.9527 11.5317 24.856 11.627C24.7593 11.7223 24.6407 11.77 24.5 11.77H24V24.155C24 24.599 23.8417 24.979 23.525 25.295C23.2083 25.611 22.8283 25.7693 22.385 25.77H13.616ZM23 11.77H13V24.155C13 24.3343 13.0577 24.4817 13.173 24.597C13.2883 24.7123 13.436 24.77 13.616 24.77H22.385C22.5643 24.77 22.7117 24.7123 22.827 24.597C22.9423 24.4817 23 24.3343 23 24.155V11.77ZM16.665 22.626C16.7603 22.53 16.808 22.4113 16.808 22.27V14.27C16.808 14.128 16.76 14.0093 16.664 13.914C16.568 13.8187 16.449 13.7707 16.307 13.77C16.165 13.7693 16.0463 13.8173 15.951 13.914C15.8557 14.0107 15.808 14.1293 15.808 14.27V22.27C15.808 22.412 15.856 22.5307 15.952 22.626C16.048 22.722 16.1667 22.77 16.308 22.77C16.45 22.77 16.569 22.722 16.665 22.626ZM20.049 22.626C20.1443 22.53 20.192 22.4113 20.192 22.27V14.27C20.192 14.128 20.144 14.0093 20.048 13.914C19.952 13.818 19.8333 13.77 19.692 13.77C19.55 13.77 19.431 13.818 19.335 13.914C19.239 14.01 19.1913 14.1287 19.192 14.27V22.27C19.192 22.412 19.24 22.5307 19.336 22.626C19.432 22.7213 19.551 22.7693 19.693 22.77C19.835 22.7707 19.9537 22.7227 20.049 22.626Z" fill="black"/>
</svg>
